<svg width="55" height="29" viewBox="0 0 55 29" fill="none" xmlns="http://www.w3.org/2000/svg">
<path d="M13.488 7.2C13.6 7.2 13.688 7.232 13.752 7.296C13.816 7.36 13.848 7.448 13.848 7.56V10.728C13.848 10.84 13.816 10.928 13.752 10.992C13.688 11.056 13.6 11.088 13.488 11.088H9.456C9.376 11.088 9.336 11.128 9.336 11.208V23.64C9.336 23.752 9.304 23.84 9.24 23.904C9.176 23.968 9.088 24 8.976 24H5.184C5.072 24 4.984 23.968 4.92 23.904C4.856 23.84 4.824 23.752 4.824 23.64V11.208C4.824 11.128 4.784 11.088 4.704 11.088H0.792C0.68 11.088 0.592 11.056 0.528 10.992C0.464 10.928 0.432 10.84 0.432 10.728V7.56C0.432 7.448 0.464 7.36 0.528 7.296C0.592 7.232 0.68 7.2 0.792 7.2H13.488ZM20.6438 11.352C21.1878 11.352 21.6198 11.456 21.9398 11.664C22.0838 11.744 22.1398 11.896 22.1078 12.12L21.5318 15.816C21.5158 15.944 21.4678 16.024 21.3878 16.056C21.3238 16.088 21.2278 16.088 21.0998 16.056C20.8118 15.992 20.5558 15.96 20.3318 15.96C20.0918 15.96 19.8678 15.984 19.6598 16.032C19.2438 16.112 18.8838 16.288 18.5798 16.56C18.2918 16.816 18.1478 17.168 18.1478 17.616V23.64C18.1478 23.752 18.1158 23.84 18.0518 23.904C17.9878 23.968 17.8998 24 17.7878 24H13.9958C13.8838 24 13.7958 23.968 13.7318 23.904C13.6678 23.84 13.6357 23.752 13.6357 23.64V11.88C13.6357 11.768 13.6678 11.68 13.7318 11.616C13.7958 11.552 13.8838 11.52 13.9958 11.52H17.7878C17.8998 11.52 17.9878 11.552 18.0518 11.616C18.1158 11.68 18.1478 11.768 18.1478 11.88V12.456C18.1478 12.504 18.1638 12.536 18.1958 12.552C18.2278 12.568 18.2518 12.56 18.2678 12.528C18.8758 11.744 19.6678 11.352 20.6438 11.352ZM25.4314 10.68C24.7754 10.68 24.2314 10.472 23.7994 10.056C23.3834 9.624 23.1754 9.08 23.1754 8.424C23.1754 7.752 23.3834 7.208 23.7994 6.792C24.2314 6.376 24.7754 6.168 25.4314 6.168C26.0874 6.168 26.6234 6.376 27.0394 6.792C27.4714 7.208 27.6874 7.752 27.6874 8.424C27.6874 9.064 27.4714 9.6 27.0394 10.032C26.6234 10.464 26.0874 10.68 25.4314 10.68ZM23.5114 24C23.3994 24 23.3114 23.968 23.2474 23.904C23.1834 23.84 23.1514 23.752 23.1514 23.64V11.88C23.1514 11.768 23.1834 11.68 23.2474 11.616C23.3114 11.552 23.3994 11.52 23.5114 11.52H27.3034C27.4154 11.52 27.5034 11.552 27.5674 11.616C27.6314 11.68 27.6634 11.768 27.6634 11.88V23.64C27.6634 23.752 27.6314 23.84 27.5674 23.904C27.5034 23.968 27.4154 24 27.3034 24H23.5114ZM41.4611 15.12C41.7011 15.92 41.8211 16.816 41.8211 17.808C41.8211 18.96 41.6451 19.984 41.2931 20.88C40.9091 21.856 40.3091 22.656 39.4931 23.28C38.6771 23.888 37.7011 24.192 36.5651 24.192C35.3971 24.192 34.5331 23.824 33.9731 23.088C33.9411 23.056 33.9091 23.048 33.8771 23.064C33.8451 23.064 33.8291 23.088 33.8291 23.136V27.96C33.8291 28.072 33.7971 28.16 33.7331 28.224C33.6691 28.288 33.5811 28.32 33.4691 28.32H29.6771C29.5651 28.32 29.4771 28.288 29.4131 28.224C29.3491 28.16 29.3171 28.072 29.3171 27.96V11.88C29.3171 11.768 29.3491 11.68 29.4131 11.616C29.4771 11.552 29.5651 11.52 29.6771 11.52H33.4691C33.5811 11.52 33.6691 11.552 33.7331 11.616C33.7971 11.68 33.8291 11.768 33.8291 11.88V12.6C33.8291 12.648 33.8451 12.68 33.8771 12.696C33.9091 12.712 33.9411 12.696 33.9731 12.648C34.5651 11.768 35.4931 11.328 36.7571 11.328C37.8291 11.328 38.7891 11.672 39.6371 12.36C40.5011 13.032 41.1091 13.952 41.4611 15.12ZM36.7331 19.536C36.9731 19.072 37.0931 18.472 37.0931 17.736C37.0931 17.016 36.9731 16.432 36.7331 15.984C36.4451 15.456 36.0211 15.192 35.4611 15.192C34.9011 15.192 34.4771 15.464 34.1891 16.008C33.9491 16.456 33.8291 17.032 33.8291 17.736C33.8291 18.504 33.9571 19.12 34.2131 19.584C34.5011 20.08 34.9171 20.328 35.4611 20.328C36.0371 20.328 36.4611 20.064 36.7331 19.536ZM42.6576 28.776C42.6096 28.776 42.5696 28.744 42.5376 28.68C42.5056 28.616 42.4896 28.528 42.4896 28.416V25.44C42.4896 25.2 42.5776 25.08 42.7536 25.08C43.8096 25.08 44.5536 25.016 44.9856 24.888C45.4336 24.76 45.6896 24.488 45.7536 24.072L45.7296 23.928L41.9376 11.928C41.9216 11.896 41.9136 11.848 41.9136 11.784C41.9136 11.608 42.0256 11.52 42.2496 11.52H46.2816C46.5056 11.52 46.6416 11.624 46.6896 11.832L47.9856 18.24C48.0016 18.304 48.0256 18.336 48.0576 18.336C48.0896 18.336 48.1136 18.304 48.1296 18.24L49.4256 11.832C49.4736 11.624 49.6096 11.52 49.8336 11.52H53.7696C54.0416 11.52 54.1376 11.656 54.0576 11.928L50.1456 24.048C49.7296 25.28 49.2896 26.216 48.8256 26.856C48.3616 27.496 47.6656 27.976 46.7376 28.296C45.8256 28.616 44.5216 28.776 42.8256 28.776H42.6576Z" fill="#112B3C"/>
<circle cx="25.5" cy="8.5" r="2.5" fill="#E61C5D"/>
</svg>
