<svg width="48" height="48" viewBox="0 0 48 48" fill="none" xmlns="http://www.w3.org/2000/svg">
<circle cx="24" cy="24" r="24" fill="#E61C5D"/>
<path d="M23.5 33.75C17.85 33.75 13.25 29.15 13.25 23.5C13.25 17.85 17.85 13.25 23.5 13.25C29.15 13.25 33.75 17.85 33.75 23.5C33.75 29.15 29.15 33.75 23.5 33.75ZM23.5 14.75C18.67 14.75 14.75 18.68 14.75 23.5C14.75 28.32 18.67 32.25 23.5 32.25C28.33 32.25 32.25 28.32 32.25 23.5C32.25 18.68 28.33 14.75 23.5 14.75Z" fill="white"/>
<path d="M34 34.7499C33.81 34.7499 33.62 34.6799 33.47 34.5299L31.47 32.5299C31.18 32.2399 31.18 31.7599 31.47 31.4699C31.76 31.1799 32.24 31.1799 32.53 31.4699L34.53 33.4699C34.82 33.7599 34.82 34.2399 34.53 34.5299C34.38 34.6799 34.19 34.7499 34 34.7499Z" fill="white"/>
</svg>
