<svg width="55" height="23" viewBox="0 0 55 23" fill="none" xmlns="http://www.w3.org/2000/svg">
<path d="M13.488 1.2C13.6 1.2 13.688 1.232 13.752 1.296C13.816 1.36 13.848 1.448 13.848 1.56V4.728C13.848 4.84 13.816 4.928 13.752 4.992C13.688 5.056 13.6 5.088 13.488 5.088H9.456C9.376 5.088 9.336 5.128 9.336 5.208V17.64C9.336 17.752 9.304 17.84 9.24 17.904C9.176 17.968 9.088 18 8.976 18H5.184C5.072 18 4.984 17.968 4.92 17.904C4.856 17.84 4.824 17.752 4.824 17.64V5.208C4.824 5.128 4.784 5.088 4.704 5.088H0.792C0.68 5.088 0.592 5.056 0.528 4.992C0.464 4.928 0.432 4.84 0.432 4.728V1.56C0.432 1.448 0.464 1.36 0.528 1.296C0.592 1.232 0.68 1.2 0.792 1.2H13.488ZM20.6438 5.352C21.1878 5.352 21.6198 5.456 21.9398 5.664C22.0838 5.744 22.1398 5.896 22.1078 6.12L21.5318 9.816C21.5158 9.944 21.4678 10.024 21.3878 10.056C21.3238 10.088 21.2278 10.088 21.0998 10.056C20.8118 9.992 20.5558 9.96 20.3318 9.96C20.0918 9.96 19.8678 9.984 19.6598 10.032C19.2438 10.112 18.8838 10.288 18.5798 10.56C18.2918 10.816 18.1478 11.168 18.1478 11.616V17.64C18.1478 17.752 18.1158 17.84 18.0518 17.904C17.9878 17.968 17.8998 18 17.7878 18H13.9958C13.8838 18 13.7958 17.968 13.7318 17.904C13.6678 17.84 13.6357 17.752 13.6357 17.64V5.88C13.6357 5.768 13.6678 5.68 13.7318 5.616C13.7958 5.552 13.8838 5.52 13.9958 5.52H17.7878C17.8998 5.52 17.9878 5.552 18.0518 5.616C18.1158 5.68 18.1478 5.768 18.1478 5.88V6.456C18.1478 6.504 18.1638 6.536 18.1958 6.552C18.2278 6.568 18.2518 6.56 18.2678 6.528C18.8758 5.744 19.6678 5.352 20.6438 5.352ZM25.4314 4.68C24.7754 4.68 24.2314 4.472 23.7994 4.056C23.3834 3.624 23.1754 3.08 23.1754 2.424C23.1754 1.752 23.3834 1.208 23.7994 0.792C24.2314 0.375999 24.7754 0.167999 25.4314 0.167999C26.0874 0.167999 26.6234 0.375999 27.0394 0.792C27.4714 1.208 27.6874 1.752 27.6874 2.424C27.6874 3.064 27.4714 3.6 27.0394 4.032C26.6234 4.464 26.0874 4.68 25.4314 4.68ZM23.5114 18C23.3994 18 23.3114 17.968 23.2474 17.904C23.1834 17.84 23.1514 17.752 23.1514 17.64V5.88C23.1514 5.768 23.1834 5.68 23.2474 5.616C23.3114 5.552 23.3994 5.52 23.5114 5.52H27.3034C27.4154 5.52 27.5034 5.552 27.5674 5.616C27.6314 5.68 27.6634 5.768 27.6634 5.88V17.64C27.6634 17.752 27.6314 17.84 27.5674 17.904C27.5034 17.968 27.4154 18 27.3034 18H23.5114ZM41.4611 9.12C41.7011 9.92 41.8211 10.816 41.8211 11.808C41.8211 12.96 41.6451 13.984 41.2931 14.88C40.9091 15.856 40.3091 16.656 39.4931 17.28C38.6771 17.888 37.7011 18.192 36.5651 18.192C35.3971 18.192 34.5331 17.824 33.9731 17.088C33.9411 17.056 33.9091 17.048 33.8771 17.064C33.8451 17.064 33.8291 17.088 33.8291 17.136V21.96C33.8291 22.072 33.7971 22.16 33.7331 22.224C33.6691 22.288 33.5811 22.32 33.4691 22.32H29.6771C29.5651 22.32 29.4771 22.288 29.4131 22.224C29.3491 22.16 29.3171 22.072 29.3171 21.96V5.88C29.3171 5.768 29.3491 5.68 29.4131 5.616C29.4771 5.552 29.5651 5.52 29.6771 5.52H33.4691C33.5811 5.52 33.6691 5.552 33.7331 5.616C33.7971 5.68 33.8291 5.768 33.8291 5.88V6.6C33.8291 6.648 33.8451 6.68 33.8771 6.696C33.9091 6.712 33.9411 6.696 33.9731 6.648C34.5651 5.768 35.4931 5.328 36.7571 5.328C37.8291 5.328 38.7891 5.672 39.6371 6.36C40.5011 7.032 41.1091 7.952 41.4611 9.12ZM36.7331 13.536C36.9731 13.072 37.0931 12.472 37.0931 11.736C37.0931 11.016 36.9731 10.432 36.7331 9.984C36.4451 9.456 36.0211 9.192 35.4611 9.192C34.9011 9.192 34.4771 9.464 34.1891 10.008C33.9491 10.456 33.8291 11.032 33.8291 11.736C33.8291 12.504 33.9571 13.12 34.2131 13.584C34.5011 14.08 34.9171 14.328 35.4611 14.328C36.0371 14.328 36.4611 14.064 36.7331 13.536ZM42.6576 22.776C42.6096 22.776 42.5696 22.744 42.5376 22.68C42.5056 22.616 42.4896 22.528 42.4896 22.416V19.44C42.4896 19.2 42.5776 19.08 42.7536 19.08C43.8096 19.08 44.5536 19.016 44.9856 18.888C45.4336 18.76 45.6896 18.488 45.7536 18.072L45.7296 17.928L41.9376 5.928C41.9216 5.896 41.9136 5.848 41.9136 5.784C41.9136 5.608 42.0256 5.52 42.2496 5.52H46.2816C46.5056 5.52 46.6416 5.624 46.6896 5.832L47.9856 12.24C48.0016 12.304 48.0256 12.336 48.0576 12.336C48.0896 12.336 48.1136 12.304 48.1296 12.24L49.4256 5.832C49.4736 5.624 49.6096 5.52 49.8336 5.52H53.7696C54.0416 5.52 54.1376 5.656 54.0576 5.928L50.1456 18.048C49.7296 19.28 49.2896 20.216 48.8256 20.856C48.3616 21.496 47.6656 21.976 46.7376 22.296C45.8256 22.616 44.5216 22.776 42.8256 22.776H42.6576Z" fill="#112B3C"/>
</svg>
